<mxfile host="app.diagrams.net" modified="2021-11-10T15:59:06.435Z" agent="5.0 (Windows NT 10.0; Win64; x64) AppleWebKit/537.36 (KHTML, like Gecko) Chrome/95.0.4638.69 Safari/537.36" etag="yS5HYSVD2ERwC1ohM5e1" version="15.7.2" type="github">
  <diagram name="Page-1" id="929967ad-93f9-6ef4-fab6-5d389245f69c">
    <mxGraphModel dx="1346" dy="917" grid="1" gridSize="10" guides="1" tooltips="1" connect="1" arrows="1" fold="1" page="1" pageScale="1.5" pageWidth="1169" pageHeight="826" background="none" math="0" shadow="0">
      <root>
        <mxCell id="0" style=";html=1;" />
        <mxCell id="1" style=";html=1;" parent="0" />
        <mxCell id="1672d66443f91eb5-23" value="Title" style="text;strokeColor=none;fillColor=none;html=1;fontSize=24;fontStyle=1;verticalAlign=middle;align=center;" parent="1" vertex="1">
          <mxGeometry x="120" y="40" width="1510" height="40" as="geometry" />
        </mxCell>
        <mxCell id="eQxQ44FI70tk6UVbteph-3" value="" style="ellipse;html=1;shape=startState;fillColor=#000000;strokeColor=#ff0000;" vertex="1" parent="1">
          <mxGeometry x="650" y="120" width="30" height="30" as="geometry" />
        </mxCell>
        <mxCell id="eQxQ44FI70tk6UVbteph-4" value="" style="edgeStyle=orthogonalEdgeStyle;html=1;verticalAlign=bottom;endArrow=open;endSize=8;strokeColor=#ff0000;rounded=0;" edge="1" source="eQxQ44FI70tk6UVbteph-3" parent="1">
          <mxGeometry relative="1" as="geometry">
            <mxPoint x="665" y="210" as="targetPoint" />
          </mxGeometry>
        </mxCell>
        <mxCell id="eQxQ44FI70tk6UVbteph-5" value="Зайти в Zoom" style="rounded=1;whiteSpace=wrap;html=1;fontFamily=Times New Roman;fontSize=32;" vertex="1" parent="1">
          <mxGeometry x="587.5" y="210" width="155" height="100" as="geometry" />
        </mxCell>
        <mxCell id="eQxQ44FI70tk6UVbteph-6" value="Приложение" style="rounded=0;whiteSpace=wrap;html=1;fontFamily=Times New Roman;fontSize=32;" vertex="1" parent="1">
          <mxGeometry x="568.75" y="370" width="192.5" height="90" as="geometry" />
        </mxCell>
        <mxCell id="eQxQ44FI70tk6UVbteph-7" value="" style="endArrow=classic;html=1;rounded=0;fontFamily=Times New Roman;fontSize=32;exitX=0.5;exitY=1;exitDx=0;exitDy=0;entryX=0.5;entryY=0;entryDx=0;entryDy=0;" edge="1" parent="1" source="eQxQ44FI70tk6UVbteph-5" target="eQxQ44FI70tk6UVbteph-6">
          <mxGeometry width="50" height="50" relative="1" as="geometry">
            <mxPoint x="680" y="590" as="sourcePoint" />
            <mxPoint x="665" y="360" as="targetPoint" />
          </mxGeometry>
        </mxCell>
        <mxCell id="eQxQ44FI70tk6UVbteph-59" value="" style="edgeStyle=orthogonalEdgeStyle;rounded=0;orthogonalLoop=1;jettySize=auto;html=1;fontFamily=Times New Roman;fontSize=14;" edge="1" parent="1" source="eQxQ44FI70tk6UVbteph-8" target="eQxQ44FI70tk6UVbteph-57">
          <mxGeometry relative="1" as="geometry" />
        </mxCell>
        <mxCell id="eQxQ44FI70tk6UVbteph-8" value="Выбираем создание конференции" style="rounded=1;whiteSpace=wrap;html=1;fontFamily=Times New Roman;fontSize=32;" vertex="1" parent="1">
          <mxGeometry x="780" y="520" width="210" height="210" as="geometry" />
        </mxCell>
        <mxCell id="eQxQ44FI70tk6UVbteph-9" value="Выбираем подключение к конференции" style="rounded=1;whiteSpace=wrap;html=1;fontFamily=Times New Roman;fontSize=32;" vertex="1" parent="1">
          <mxGeometry x="330" y="520" width="210" height="210" as="geometry" />
        </mxCell>
        <mxCell id="eQxQ44FI70tk6UVbteph-10" value="" style="endArrow=classic;html=1;rounded=0;fontFamily=Times New Roman;fontSize=32;exitX=0.5;exitY=1;exitDx=0;exitDy=0;entryX=0;entryY=0;entryDx=0;entryDy=0;" edge="1" parent="1" source="eQxQ44FI70tk6UVbteph-6" target="eQxQ44FI70tk6UVbteph-8">
          <mxGeometry width="50" height="50" relative="1" as="geometry">
            <mxPoint x="680" y="590" as="sourcePoint" />
            <mxPoint x="730" y="540" as="targetPoint" />
          </mxGeometry>
        </mxCell>
        <mxCell id="eQxQ44FI70tk6UVbteph-11" value="" style="endArrow=classic;html=1;rounded=0;fontFamily=Times New Roman;fontSize=32;exitX=0.5;exitY=1;exitDx=0;exitDy=0;entryX=1;entryY=0;entryDx=0;entryDy=0;" edge="1" parent="1" source="eQxQ44FI70tk6UVbteph-6" target="eQxQ44FI70tk6UVbteph-9">
          <mxGeometry width="50" height="50" relative="1" as="geometry">
            <mxPoint x="680" y="590" as="sourcePoint" />
            <mxPoint x="730" y="540" as="targetPoint" />
          </mxGeometry>
        </mxCell>
        <mxCell id="eQxQ44FI70tk6UVbteph-14" value="Вносим данные для входа:&lt;br&gt;Идентификатор конференции&lt;br&gt;Имя&lt;br&gt;Параметры входа" style="shape=note2;boundedLbl=1;whiteSpace=wrap;html=1;size=25;verticalAlign=top;align=center;fontFamily=Times New Roman;fontSize=32;" vertex="1" parent="1">
          <mxGeometry x="40" y="140" width="260" height="320" as="geometry" />
        </mxCell>
        <mxCell id="eQxQ44FI70tk6UVbteph-15" value="" style="endArrow=none;dashed=1;html=1;dashPattern=1 3;strokeWidth=2;rounded=0;fontFamily=Times New Roman;fontSize=32;exitX=0.5;exitY=0;exitDx=0;exitDy=0;entryX=1;entryY=1;entryDx=0;entryDy=0;entryPerimeter=0;" edge="1" parent="1" source="eQxQ44FI70tk6UVbteph-9" target="eQxQ44FI70tk6UVbteph-14">
          <mxGeometry width="50" height="50" relative="1" as="geometry">
            <mxPoint x="640" y="450" as="sourcePoint" />
            <mxPoint x="690" y="400" as="targetPoint" />
          </mxGeometry>
        </mxCell>
        <mxCell id="eQxQ44FI70tk6UVbteph-17" value="Войти" style="rounded=1;whiteSpace=wrap;html=1;fontFamily=Times New Roman;fontSize=32;" vertex="1" parent="1">
          <mxGeometry x="375" y="820" width="120" height="60" as="geometry" />
        </mxCell>
        <mxCell id="eQxQ44FI70tk6UVbteph-19" value="" style="endArrow=classic;html=1;rounded=0;fontFamily=Times New Roman;fontSize=32;entryX=0.5;entryY=0;entryDx=0;entryDy=0;exitX=0.5;exitY=1;exitDx=0;exitDy=0;" edge="1" parent="1" source="eQxQ44FI70tk6UVbteph-9" target="eQxQ44FI70tk6UVbteph-17">
          <mxGeometry width="50" height="50" relative="1" as="geometry">
            <mxPoint x="640" y="740" as="sourcePoint" />
            <mxPoint x="690" y="690" as="targetPoint" />
          </mxGeometry>
        </mxCell>
        <mxCell id="eQxQ44FI70tk6UVbteph-23" value="Делимся ссылкой для поключения" style="shape=note2;boundedLbl=1;whiteSpace=wrap;html=1;size=25;verticalAlign=top;align=center;fontFamily=Times New Roman;fontSize=32;" vertex="1" parent="1">
          <mxGeometry x="1070" y="220" width="210" height="210" as="geometry" />
        </mxCell>
        <mxCell id="eQxQ44FI70tk6UVbteph-24" value="" style="endArrow=none;dashed=1;html=1;dashPattern=1 3;strokeWidth=2;rounded=0;fontFamily=Times New Roman;fontSize=32;exitX=0;exitY=1;exitDx=0;exitDy=0;entryX=1;entryY=1;entryDx=0;entryDy=0;entryPerimeter=0;exitPerimeter=0;" edge="1" parent="1" source="eQxQ44FI70tk6UVbteph-23">
          <mxGeometry width="50" height="50" relative="1" as="geometry">
            <mxPoint x="1004.9999999999998" y="580" as="sourcePoint" />
            <mxPoint x="869.9999999999998" y="520" as="targetPoint" />
          </mxGeometry>
        </mxCell>
        <mxCell id="eQxQ44FI70tk6UVbteph-43" value="Функции приложения &lt;br&gt;для слушателя" style="swimlane;fontStyle=0;align=center;verticalAlign=top;childLayout=stackLayout;horizontal=1;startSize=100;horizontalStack=0;resizeParent=1;resizeParentMax=0;resizeLast=0;collapsible=0;marginBottom=0;html=1;fontFamily=Times New Roman;fontSize=32;" vertex="1" parent="1">
          <mxGeometry x="20" y="930" width="370" height="330" as="geometry" />
        </mxCell>
        <mxCell id="eQxQ44FI70tk6UVbteph-44" value="чат" style="text;html=1;strokeColor=none;fillColor=none;align=left;verticalAlign=middle;spacingLeft=4;spacingRight=4;overflow=hidden;rotatable=0;points=[[0,0.5],[1,0.5]];portConstraint=eastwest;fontFamily=Times New Roman;fontSize=32;" vertex="1" parent="eQxQ44FI70tk6UVbteph-43">
          <mxGeometry y="100" width="370" height="50" as="geometry" />
        </mxCell>
        <mxCell id="eQxQ44FI70tk6UVbteph-45" value="поднять руку" style="text;html=1;strokeColor=none;fillColor=none;align=left;verticalAlign=middle;spacingLeft=4;spacingRight=4;overflow=hidden;rotatable=0;points=[[0,0.5],[1,0.5]];portConstraint=eastwest;fontFamily=Times New Roman;fontSize=32;" vertex="1" parent="eQxQ44FI70tk6UVbteph-43">
          <mxGeometry y="150" width="370" height="40" as="geometry" />
        </mxCell>
        <mxCell id="eQxQ44FI70tk6UVbteph-48" value="демонстрация экрана" style="text;html=1;strokeColor=none;fillColor=none;align=left;verticalAlign=middle;spacingLeft=4;spacingRight=4;overflow=hidden;rotatable=0;points=[[0,0.5],[1,0.5]];portConstraint=eastwest;fontFamily=Times New Roman;fontSize=32;" vertex="1" parent="eQxQ44FI70tk6UVbteph-43">
          <mxGeometry y="190" width="370" height="40" as="geometry" />
        </mxCell>
        <mxCell id="eQxQ44FI70tk6UVbteph-46" value="выйти в эфир" style="text;html=1;strokeColor=none;fillColor=none;align=left;verticalAlign=middle;spacingLeft=4;spacingRight=4;overflow=hidden;rotatable=0;points=[[0,0.5],[1,0.5]];portConstraint=eastwest;fontFamily=Times New Roman;fontSize=32;" vertex="1" parent="eQxQ44FI70tk6UVbteph-43">
          <mxGeometry y="230" width="370" height="50" as="geometry" />
        </mxCell>
        <mxCell id="eQxQ44FI70tk6UVbteph-54" value="вкл/выкл звук/видео" style="text;html=1;strokeColor=none;fillColor=none;align=left;verticalAlign=middle;spacingLeft=4;spacingRight=4;overflow=hidden;rotatable=0;points=[[0,0.5],[1,0.5]];portConstraint=eastwest;fontFamily=Times New Roman;fontSize=32;" vertex="1" parent="eQxQ44FI70tk6UVbteph-43">
          <mxGeometry y="280" width="370" height="50" as="geometry" />
        </mxCell>
        <mxCell id="eQxQ44FI70tk6UVbteph-47" value="" style="endArrow=none;dashed=1;html=1;dashPattern=1 3;strokeWidth=2;rounded=0;fontFamily=Times New Roman;fontSize=32;" edge="1" parent="1">
          <mxGeometry width="50" height="50" relative="1" as="geometry">
            <mxPoint x="330" y="930" as="sourcePoint" />
            <mxPoint x="380" y="880" as="targetPoint" />
          </mxGeometry>
        </mxCell>
        <mxCell id="eQxQ44FI70tk6UVbteph-49" value="Функции приложения &lt;br&gt;для лектора" style="swimlane;fontStyle=0;align=center;verticalAlign=top;childLayout=stackLayout;horizontal=1;startSize=100;horizontalStack=0;resizeParent=1;resizeParentMax=0;resizeLast=0;collapsible=0;marginBottom=0;html=1;fontFamily=Times New Roman;fontSize=32;" vertex="1" parent="1">
          <mxGeometry x="770" y="920" width="490" height="330" as="geometry" />
        </mxCell>
        <mxCell id="eQxQ44FI70tk6UVbteph-50" value="чат" style="text;html=1;strokeColor=none;fillColor=none;align=left;verticalAlign=middle;spacingLeft=4;spacingRight=4;overflow=hidden;rotatable=0;points=[[0,0.5],[1,0.5]];portConstraint=eastwest;fontFamily=Times New Roman;fontSize=32;" vertex="1" parent="eQxQ44FI70tk6UVbteph-49">
          <mxGeometry y="100" width="490" height="50" as="geometry" />
        </mxCell>
        <mxCell id="eQxQ44FI70tk6UVbteph-51" value="дать слово участинику конференции" style="text;html=1;strokeColor=none;fillColor=none;align=left;verticalAlign=middle;spacingLeft=4;spacingRight=4;overflow=hidden;rotatable=0;points=[[0,0.5],[1,0.5]];portConstraint=eastwest;fontFamily=Times New Roman;fontSize=32;" vertex="1" parent="eQxQ44FI70tk6UVbteph-49">
          <mxGeometry y="150" width="490" height="40" as="geometry" />
        </mxCell>
        <mxCell id="eQxQ44FI70tk6UVbteph-52" value="демонстрация экрана" style="text;html=1;strokeColor=none;fillColor=none;align=left;verticalAlign=middle;spacingLeft=4;spacingRight=4;overflow=hidden;rotatable=0;points=[[0,0.5],[1,0.5]];portConstraint=eastwest;fontFamily=Times New Roman;fontSize=32;" vertex="1" parent="eQxQ44FI70tk6UVbteph-49">
          <mxGeometry y="190" width="490" height="40" as="geometry" />
        </mxCell>
        <mxCell id="eQxQ44FI70tk6UVbteph-53" value="выйти в эфир" style="text;html=1;strokeColor=none;fillColor=none;align=left;verticalAlign=middle;spacingLeft=4;spacingRight=4;overflow=hidden;rotatable=0;points=[[0,0.5],[1,0.5]];portConstraint=eastwest;fontFamily=Times New Roman;fontSize=32;" vertex="1" parent="eQxQ44FI70tk6UVbteph-49">
          <mxGeometry y="230" width="490" height="50" as="geometry" />
        </mxCell>
        <mxCell id="eQxQ44FI70tk6UVbteph-55" value="вкл/выкл звук/видео" style="text;html=1;strokeColor=none;fillColor=none;align=left;verticalAlign=middle;spacingLeft=4;spacingRight=4;overflow=hidden;rotatable=0;points=[[0,0.5],[1,0.5]];portConstraint=eastwest;fontFamily=Times New Roman;fontSize=32;" vertex="1" parent="eQxQ44FI70tk6UVbteph-49">
          <mxGeometry y="280" width="490" height="50" as="geometry" />
        </mxCell>
        <mxCell id="eQxQ44FI70tk6UVbteph-57" value="Войти" style="rounded=1;whiteSpace=wrap;html=1;fontFamily=Times New Roman;fontSize=32;" vertex="1" parent="1">
          <mxGeometry x="825" y="810" width="120" height="60" as="geometry" />
        </mxCell>
        <mxCell id="eQxQ44FI70tk6UVbteph-58" value="" style="endArrow=classic;html=1;rounded=0;fontFamily=Times New Roman;fontSize=32;entryX=0.5;entryY=0;entryDx=0;entryDy=0;" edge="1" parent="1">
          <mxGeometry width="50" height="50" relative="1" as="geometry">
            <mxPoint x="884" y="730" as="sourcePoint" />
            <mxPoint x="884.2899999999997" y="810" as="targetPoint" />
          </mxGeometry>
        </mxCell>
        <mxCell id="eQxQ44FI70tk6UVbteph-60" value="" style="endArrow=classic;html=1;rounded=0;fontFamily=Times New Roman;fontSize=14;exitX=1;exitY=1;exitDx=0;exitDy=0;" edge="1" parent="1" source="eQxQ44FI70tk6UVbteph-17">
          <mxGeometry width="50" height="50" relative="1" as="geometry">
            <mxPoint x="560" y="850" as="sourcePoint" />
            <mxPoint x="620" y="990" as="targetPoint" />
          </mxGeometry>
        </mxCell>
        <mxCell id="eQxQ44FI70tk6UVbteph-61" value="" style="endArrow=classic;html=1;rounded=0;fontFamily=Times New Roman;fontSize=14;exitX=0;exitY=1;exitDx=0;exitDy=0;" edge="1" parent="1" source="eQxQ44FI70tk6UVbteph-57">
          <mxGeometry width="50" height="50" relative="1" as="geometry">
            <mxPoint x="560" y="850" as="sourcePoint" />
            <mxPoint x="650" y="990" as="targetPoint" />
          </mxGeometry>
        </mxCell>
        <mxCell id="eQxQ44FI70tk6UVbteph-63" value="" style="endArrow=classic;html=1;rounded=0;fontFamily=Times New Roman;fontSize=30;" edge="1" parent="1" target="eQxQ44FI70tk6UVbteph-64">
          <mxGeometry width="50" height="50" relative="1" as="geometry">
            <mxPoint x="640" y="990" as="sourcePoint" />
            <mxPoint x="650" y="700" as="targetPoint" />
          </mxGeometry>
        </mxCell>
        <mxCell id="eQxQ44FI70tk6UVbteph-64" value="Выход из конференции" style="rounded=1;whiteSpace=wrap;html=1;fontFamily=Times New Roman;fontSize=30;" vertex="1" parent="1">
          <mxGeometry x="560" y="640" width="180" height="140" as="geometry" />
        </mxCell>
        <mxCell id="eQxQ44FI70tk6UVbteph-65" value="" style="endArrow=classic;html=1;rounded=0;fontFamily=Times New Roman;fontSize=30;exitX=0.5;exitY=0;exitDx=0;exitDy=0;entryX=0.5;entryY=1;entryDx=0;entryDy=0;" edge="1" parent="1" source="eQxQ44FI70tk6UVbteph-64" target="eQxQ44FI70tk6UVbteph-6">
          <mxGeometry width="50" height="50" relative="1" as="geometry">
            <mxPoint x="560" y="800" as="sourcePoint" />
            <mxPoint x="610" y="750" as="targetPoint" />
          </mxGeometry>
        </mxCell>
        <mxCell id="eQxQ44FI70tk6UVbteph-66" value="" style="endArrow=none;dashed=1;html=1;dashPattern=1 3;strokeWidth=2;rounded=0;fontFamily=Times New Roman;fontSize=32;exitX=0.42;exitY=-0.002;exitDx=0;exitDy=0;exitPerimeter=0;entryX=0.75;entryY=1;entryDx=0;entryDy=0;" edge="1" parent="1" source="eQxQ44FI70tk6UVbteph-49" target="eQxQ44FI70tk6UVbteph-57">
          <mxGeometry width="50" height="50" relative="1" as="geometry">
            <mxPoint x="339.9999999999998" y="940" as="sourcePoint" />
            <mxPoint x="389.9999999999998" y="890" as="targetPoint" />
            <Array as="points">
              <mxPoint x="910" y="870" />
            </Array>
          </mxGeometry>
        </mxCell>
        <mxCell id="eQxQ44FI70tk6UVbteph-67" value="Конференция" style="rounded=0;whiteSpace=wrap;html=1;fontFamily=Times New Roman;fontSize=30;" vertex="1" parent="1">
          <mxGeometry x="527.5" y="990" width="210" height="120" as="geometry" />
        </mxCell>
      </root>
    </mxGraphModel>
  </diagram>
</mxfile>
